<?xml version="1.0" standalone="no"?>
<!DOCTYPE svg PUBLIC "-//W3C//DTD SVG 20010904//EN"
 "http://www.w3.org/TR/2001/REC-SVG-20010904/DTD/svg10.dtd">
<svg version="1.0" xmlns="http://www.w3.org/2000/svg"
 width="1152.000000pt" height="768.000000pt" viewBox="0 0 1152.000000 768.000000"
 preserveAspectRatio="xMidYMid meet">

<g transform="translate(0.000000,768.000000) scale(0.100000,-0.100000)"
fill="#000000" stroke="none">
<path d="M0 5585 l0 -2096 588 6 c323 3 604 8 625 11 21 2 81 22 134 44 53 22
114 43 137 46 75 10 81 13 93 44 10 28 15 30 60 30 38 0 67 -9 124 -39 105
-55 119 -56 190 -25 l60 27 28 -21 c23 -17 46 -21 147 -25 90 -3 156 -13 273
-40 297 -70 392 -76 791 -46 169 12 388 8 945 -17 273 -13 425 -14 690 -8 438
11 768 9 875 -5 58 -8 515 -11 1473 -11 l1388 0 -6 48 c-3 26 -14 119 -26 207
-11 88 -23 219 -26 291 l-6 131 69 23 c102 34 231 90 244 105 25 30 -95 71
-320 110 -86 15 -150 31 -159 40 -14 14 -13 18 14 40 47 39 165 94 224 105 29
6 88 10 130 11 106 1 57 13 -144 34 -165 18 -193 25 -403 102 -123 45 -147 63
-121 87 25 23 183 103 260 131 89 33 207 38 278 11 24 -9 46 -14 49 -11 10 10
-52 67 -168 155 -63 48 -139 113 -168 143 -57 61 -108 155 -92 171 14 14 109
-30 263 -123 74 -45 138 -81 141 -81 3 0 6 22 6 49 0 28 5 53 11 57 23 14 194
5 267 -14 39 -11 72 -19 73 -18 0 0 1 18 2 39 2 37 0 40 -55 69 -120 64 -220
207 -253 363 -22 106 -20 132 15 167 26 26 36 30 65 25 45 -7 107 -51 176
-124 58 -60 74 -97 102 -230 10 -49 13 -53 40 -53 22 0 45 15 90 56 67 62 144
104 193 104 25 0 37 -8 59 -40 15 -22 33 -40 39 -40 6 0 101 38 211 85 110 47
203 85 207 85 5 0 8 -7 8 -15 0 -27 -78 -101 -140 -134 -63 -34 -65 -38 -73
-123 -5 -57 1 -63 116 -103 96 -34 133 -72 143 -145 4 -27 10 -50 15 -50 23 0
59 22 59 36 0 8 -15 61 -34 117 -19 56 -37 119 -41 139 -8 48 15 155 55 256
27 67 37 83 61 91 27 9 33 6 78 -39 90 -90 140 -232 141 -397 0 -46 2 -83 5
-83 3 0 29 17 58 39 115 86 180 96 378 61 117 -21 149 -31 149 -51 0 -15 -53
-37 -141 -59 -70 -17 -131 -47 -356 -173 -150 -83 -273 -157 -273 -164 0 -10
28 -13 118 -13 64 0 134 -3 154 -6 33 -6 38 -11 44 -40 3 -18 11 -37 18 -42 6
-6 55 -17 109 -27 53 -10 97 -21 97 -25 0 -5 2 -15 6 -23 4 -11 -18 -18 -106
-32 -61 -10 -107 -21 -103 -25 4 -5 55 -17 112 -29 69 -13 117 -29 143 -46 39
-26 56 -50 44 -62 -11 -11 -109 -5 -176 11 -36 9 -80 16 -98 16 -33 0 -349
-95 -365 -110 -11 -10 18 -31 76 -55 43 -17 57 -29 84 -75 18 -30 33 -58 33
-62 0 -4 -9 -16 -21 -27 -21 -20 -73 -35 -163 -46 -49 -7 -49 -7 -29 -27 11
-11 58 -35 104 -53 65 -26 87 -40 98 -62 18 -35 19 -213 2 -298 -11 -54 -75
-315 -87 -357 -5 -15 -1 -16 26 -7 18 7 81 9 158 7 130 -5 817 7 1020 18 l112
6 0 2099 0 2099 -5760 0 -5760 0 0 -2095z"/>
<path d="M9632 5323 c-1 -13 -5 -23 -9 -23 -14 -1 -127 -109 -121 -115 3 -4
34 -1 67 6 69 13 75 22 68 105 -2 27 -4 39 -5 27z"/>
<path d="M9572 5119 c-56 -41 -56 -61 1 -53 23 3 48 7 55 10 16 4 16 35 -1 57
-11 16 -15 15 -55 -14z"/>
<path d="M8780 4854 c0 -3 11 -19 25 -36 26 -31 31 -26 15 16 -8 22 -40 38
-40 20z"/>
<path d="M10182 4651 c-95 -48 -181 -95 -190 -104 -15 -16 -14 -17 10 -17 42
0 77 17 165 81 46 33 108 71 138 85 30 14 55 30 55 35 0 12 19 20 -178 -80z"/>
<path d="M9655 4690 c-4 -6 -3 -16 3 -22 6 -6 12 -6 17 2 4 6 3 16 -3 22 -6 6
-12 6 -17 -2z"/>
<path d="M9276 4598 c-67 -108 -67 -108 -50 -115 9 -3 24 -2 33 3 22 14 64
101 57 119 -8 21 -23 19 -40 -7z"/>
<path d="M9900 4564 c-12 -32 -13 -44 -1 -44 12 0 41 40 41 57 0 23 -30 14
-40 -13z"/>
</g>
</svg>
